name Walk9.mot
datacolumns 19
datarows 17
range 2.48900000 2.50500000
endheader

                time	   L_ground_force_vx	   L_ground_force_vy	   L_ground_force_vz	   L_ground_force_px	   L_ground_force_py	   L_ground_force_pz	   R_ground_force_vx	   R_ground_force_vy	   R_ground_force_vz	   R_ground_force_px	   R_ground_force_py	   R_ground_force_pz	   L_ground_torque_x	   L_ground_torque_y	   L_ground_torque_z	   R_ground_torque_x	   R_ground_torque_y	   R_ground_torque_z	
          2.48900000	         -0.00000000	         -0.00000000	          0.00000000	         -0.00000000	          0.00000000	         -0.00000000	          7.78340454	         22.16071349	          8.75501373	          0.38688362	          0.00000000	          0.05723240	          0.00000000	         -0.00000000	          0.00000000	          0.00000000	         -1.57700324	          0.00000000	
          2.49000000	         -0.00000000	         -0.00000000	          0.00000000	         -0.00000000	          0.00000000	         -0.00000000	          7.04224490	         19.54311363	          8.23411071	          0.37172484	          0.00000000	          0.05502408	          0.00000000	         -0.00000000	          0.00000000	          0.00000000	         -1.43095491	          0.00000000	
          2.49100000	         -0.00000000	         -0.00000000	          0.00000000	         -0.00000000	          0.00000000	         -0.00000000	          6.33747589	         17.07452003	          7.72644282	          0.35646518	          0.00000000	          0.05279780	          0.00000000	         -0.00000000	          0.00000000	          0.00000000	         -1.29192063	          0.00000000	
          2.49200000	         -0.00000000	         -0.00000000	          0.00000000	         -0.00000000	          0.00000000	         -0.00000000	          5.66867676	         14.75137820	          7.23275924	          0.34116039	          0.00000000	          0.05056195	          0.00000000	         -0.00000000	          0.00000000	          0.00000000	         -1.15982672	          0.00000000	
          2.49300000	         -0.00000000	         -0.00000000	          0.00000000	         -0.00000000	          0.00000000	         -0.00000000	          5.03532042	         12.57002884	          6.75372206	          0.32586835	          0.00000000	          0.04832523	          0.00000000	         -0.00000000	          0.00000000	          0.00000000	         -1.03458139	          0.00000000	
          2.49400000	         -0.00000000	         -0.00000000	          0.00000000	         -0.00000000	          0.00000000	         -0.00000000	          4.43678737	         10.52664767	          6.28989387	          0.31064513	          0.00000000	          0.04609607	          0.00000000	         -0.00000000	          0.00000000	          0.00000000	         -0.91607550	          0.00000000	
          2.49500000	         -0.00000000	         -0.00000000	          0.00000000	         -0.00000000	          0.00000000	         -0.00000000	          3.87237851	          8.61722553	          5.84173424	          0.29554239	          0.00000000	          0.04388226	          0.00000000	         -0.00000000	          0.00000000	          0.00000000	         -0.80418384	          0.00000000	
          2.49600000	         -0.00000000	         -0.00000000	          0.00000000	         -0.00000000	          0.00000000	         -0.00000000	          3.34132522	          6.83758792	          5.40960445	          0.28060696	          0.00000000	          0.04169086	          0.00000000	         -0.00000000	          0.00000000	          0.00000000	         -0.69876685	          0.00000000	
          2.49700000	         -0.00000000	         -0.00000000	          0.00000000	         -0.00000000	          0.00000000	         -0.00000000	          2.84279820	          5.18342486	          4.99377450	          0.26588106	          0.00000000	          0.03952824	          0.00000000	         -0.00000000	          0.00000000	          0.00000000	         -0.59967237	          0.00000000	
          2.49800000	         -0.00000000	         -0.00000000	          0.00000000	         -0.00000000	          0.00000000	         -0.00000000	          2.37591575	          3.65031868	          4.59442983	          0.25140251	          0.00000000	          0.03740012	          0.00000000	         -0.00000000	          0.00000000	          0.00000000	         -0.50673730	          0.00000000	
          2.49900000	         -0.00000000	         -0.00000000	          0.00000000	          0.00000000	          0.00000000	         -0.00000000	          1.93975156	          2.23376986	          4.21167783	          0.23720500	          0.00000000	          0.03531162	          0.00000000	         -0.00000000	          0.00000000	          0.00000000	         -0.41978911	          0.00000000	
          2.50000000	         -0.00000000	         -0.00000000	          0.00000000	          0.00000000	          0.00000000	         -0.00000000	          1.53334199	          0.92922103	          3.84555405	          0.22331828	          0.00000000	          0.03326726	          0.00000000	         -0.00000000	          0.00000000	          0.00000000	         -0.33864733	          0.00000000	
          2.50100000	         -0.00000000	         -0.00000000	          0.00000000	          0.00000000	          0.00000000	         -0.00000000	          1.15569292	         -0.26792094	          3.49602818	          0.20976839	          0.00000000	          0.03127101	          0.00000000	         -0.00000000	          0.00000000	          0.00000000	         -0.26312490	          0.00000000	
          2.50200000	         -0.00000000	         -0.00000000	          0.00000000	          0.00000000	          0.00000000	         -0.00000000	          0.80578605	         -1.36226450	          3.16300978	          0.19657791	          0.00000000	          0.02932633	          0.00000000	         -0.00000000	          0.00000000	          0.00000000	         -0.19302941	          0.00000000	
          2.50300000	         -0.00000000	         -0.00000000	          0.00000000	          0.00000000	          0.00000000	         -0.00000000	          0.48258484	         -2.35841473	          2.84635371	          0.18376611	          0.00000000	          0.02743617	          0.00000000	         -0.00000000	          0.00000000	          0.00000000	         -0.12816431	          0.00000000	
          2.50400000	         -0.00000000	         -0.00000000	          0.00000000	          0.00000000	          0.00000000	         -0.00000000	          0.18503997	         -3.26095622	          2.54586535	          0.17134922	          0.00000000	          0.02560304	          0.00000000	         -0.00000000	          0.00000000	          0.00000000	         -0.06833002	          0.00000000	
          2.50500000	         -0.00000000	         -0.00000000	          0.00000000	          0.00000000	          0.00000000	          0.00000000	         -0.08790562	         -4.07443747	          2.26130553	          0.15934058	          0.00000000	          0.02382903	          0.00000000	         -0.00000000	          0.00000000	          0.00000000	         -0.01332488	          0.00000000	
